<mxfile host="app.diagrams.net" modified="2023-06-23T18:47:06.084Z" agent="Mozilla/5.0 (Macintosh; Intel Mac OS X 10_15_7) AppleWebKit/537.36 (KHTML, like Gecko) Chrome/114.0.0.0 Safari/537.36" etag="oWEViG6Iys7aCUGDgkw-" version="21.5.0" type="device">
  <diagram name="PÃ¡gina-1" id="w-D7543SnavFqi8wxpTN">
    <mxGraphModel dx="1765" dy="489" grid="1" gridSize="10" guides="1" tooltips="1" connect="1" arrows="1" fold="1" page="1" pageScale="1" pageWidth="827" pageHeight="1169" math="0" shadow="0">
      <root>
        <mxCell id="0" />
        <mxCell id="1" parent="0" />
        <mxCell id="Z6VxqrmD0JxdP03Q2yg--1" value="USUARIO" style="rounded=0;whiteSpace=wrap;html=1;" parent="1" vertex="1">
          <mxGeometry x="545" y="110" width="120" height="60" as="geometry" />
        </mxCell>
        <mxCell id="Z6VxqrmD0JxdP03Q2yg--35" value="DATOS_EMPRESA" style="rounded=0;whiteSpace=wrap;html=1;" parent="1" vertex="1">
          <mxGeometry x="740" y="287" width="120" height="60" as="geometry" />
        </mxCell>
        <mxCell id="Z6VxqrmD0JxdP03Q2yg--37" value="logo" style="text;html=1;strokeColor=none;fillColor=none;align=center;verticalAlign=middle;whiteSpace=wrap;rounded=0;" parent="1" vertex="1">
          <mxGeometry x="800" y="355" width="30" height="10" as="geometry" />
        </mxCell>
        <mxCell id="Z6VxqrmD0JxdP03Q2yg--41" value="rubro" style="text;html=1;strokeColor=none;fillColor=none;align=center;verticalAlign=middle;whiteSpace=wrap;rounded=0;" parent="1" vertex="1">
          <mxGeometry x="800" y="372" width="30" height="10" as="geometry" />
        </mxCell>
        <mxCell id="Z6VxqrmD0JxdP03Q2yg--42" value="&lt;u&gt;nombre&lt;/u&gt;" style="text;html=1;strokeColor=none;fillColor=none;align=center;verticalAlign=middle;whiteSpace=wrap;rounded=0;" parent="1" vertex="1">
          <mxGeometry x="800" y="392" width="30" height="10" as="geometry" />
        </mxCell>
        <mxCell id="Z6VxqrmD0JxdP03Q2yg--45" value="direccion" style="text;html=1;strokeColor=none;fillColor=none;align=center;verticalAlign=middle;whiteSpace=wrap;rounded=0;" parent="1" vertex="1">
          <mxGeometry x="793" y="413" width="30" height="10" as="geometry" />
        </mxCell>
        <mxCell id="Z6VxqrmD0JxdP03Q2yg--47" value="contacto" style="text;html=1;strokeColor=none;fillColor=none;align=center;verticalAlign=middle;whiteSpace=wrap;rounded=0;" parent="1" vertex="1">
          <mxGeometry x="786" y="432" width="30" height="10" as="geometry" />
        </mxCell>
        <mxCell id="Z6VxqrmD0JxdP03Q2yg--50" value="comentarios" style="text;html=1;strokeColor=none;fillColor=none;align=center;verticalAlign=middle;whiteSpace=wrap;rounded=0;" parent="1" vertex="1">
          <mxGeometry x="778" y="452" width="30" height="10" as="geometry" />
        </mxCell>
        <mxCell id="Z6VxqrmD0JxdP03Q2yg--52" value="" style="endArrow=none;html=1;rounded=0;" parent="1" edge="1">
          <mxGeometry width="50" height="50" relative="1" as="geometry">
            <mxPoint x="886" y="402" as="sourcePoint" />
            <mxPoint x="836" y="422" as="targetPoint" />
          </mxGeometry>
        </mxCell>
        <mxCell id="Z6VxqrmD0JxdP03Q2yg--53" value="calle" style="text;html=1;strokeColor=none;fillColor=none;align=center;verticalAlign=middle;whiteSpace=wrap;rounded=0;" parent="1" vertex="1">
          <mxGeometry x="892" y="397" width="30" as="geometry" />
        </mxCell>
        <mxCell id="Z6VxqrmD0JxdP03Q2yg--54" value="" style="endArrow=none;html=1;rounded=0;" parent="1" edge="1">
          <mxGeometry width="50" height="50" relative="1" as="geometry">
            <mxPoint x="886" y="412" as="sourcePoint" />
            <mxPoint x="836" y="422" as="targetPoint" />
          </mxGeometry>
        </mxCell>
        <mxCell id="Z6VxqrmD0JxdP03Q2yg--55" value="numero" style="text;html=1;strokeColor=none;fillColor=none;align=center;verticalAlign=middle;whiteSpace=wrap;rounded=0;" parent="1" vertex="1">
          <mxGeometry x="896" y="408" width="30" height="1" as="geometry" />
        </mxCell>
        <mxCell id="Z6VxqrmD0JxdP03Q2yg--56" value="ciudad" style="text;html=1;strokeColor=none;fillColor=none;align=center;verticalAlign=middle;whiteSpace=wrap;rounded=0;" parent="1" vertex="1">
          <mxGeometry x="894" y="415" width="30" height="10" as="geometry" />
        </mxCell>
        <mxCell id="Z6VxqrmD0JxdP03Q2yg--57" value="" style="endArrow=none;html=1;rounded=0;" parent="1" edge="1">
          <mxGeometry width="50" height="50" relative="1" as="geometry">
            <mxPoint x="886" y="422" as="sourcePoint" />
            <mxPoint x="836" y="422" as="targetPoint" />
          </mxGeometry>
        </mxCell>
        <mxCell id="Z6VxqrmD0JxdP03Q2yg--59" value="" style="endArrow=none;html=1;rounded=0;" parent="1" edge="1">
          <mxGeometry width="50" height="50" relative="1" as="geometry">
            <mxPoint x="866" y="462" as="sourcePoint" />
            <mxPoint x="830" y="440" as="targetPoint" />
          </mxGeometry>
        </mxCell>
        <mxCell id="Z6VxqrmD0JxdP03Q2yg--60" value="whatsapp" style="text;html=1;strokeColor=none;fillColor=none;align=center;verticalAlign=middle;whiteSpace=wrap;rounded=0;" parent="1" vertex="1">
          <mxGeometry x="878" y="468" width="30" as="geometry" />
        </mxCell>
        <mxCell id="Z6VxqrmD0JxdP03Q2yg--61" value="" style="endArrow=none;html=1;rounded=0;" parent="1" edge="1">
          <mxGeometry width="50" height="50" relative="1" as="geometry">
            <mxPoint x="866" y="452" as="sourcePoint" />
            <mxPoint x="830" y="440" as="targetPoint" />
          </mxGeometry>
        </mxCell>
        <mxCell id="Z6VxqrmD0JxdP03Q2yg--62" value="instagram" style="text;html=1;strokeColor=none;fillColor=none;align=center;verticalAlign=middle;whiteSpace=wrap;rounded=0;" parent="1" vertex="1">
          <mxGeometry x="879" y="455" width="30" as="geometry" />
        </mxCell>
        <mxCell id="Z6VxqrmD0JxdP03Q2yg--63" value="" style="endArrow=none;html=1;rounded=0;" parent="1" edge="1">
          <mxGeometry width="50" height="50" relative="1" as="geometry">
            <mxPoint x="866" y="442" as="sourcePoint" />
            <mxPoint x="830" y="440" as="targetPoint" />
          </mxGeometry>
        </mxCell>
        <mxCell id="Z6VxqrmD0JxdP03Q2yg--65" value="telefono" style="text;html=1;strokeColor=none;fillColor=none;align=center;verticalAlign=middle;whiteSpace=wrap;rounded=0;" parent="1" vertex="1">
          <mxGeometry x="876" y="442" width="30" as="geometry" />
        </mxCell>
        <mxCell id="Z6VxqrmD0JxdP03Q2yg--66" value="PRODUCTO" style="rounded=0;whiteSpace=wrap;html=1;" parent="1" vertex="1">
          <mxGeometry x="212" y="508.5" width="120" height="60" as="geometry" />
        </mxCell>
        <mxCell id="Z6VxqrmD0JxdP03Q2yg--68" value="nombre" style="text;html=1;strokeColor=none;fillColor=none;align=center;verticalAlign=middle;whiteSpace=wrap;rounded=0;" parent="1" vertex="1">
          <mxGeometry x="218" y="586.5" width="30" height="10" as="geometry" />
        </mxCell>
        <mxCell id="Z6VxqrmD0JxdP03Q2yg--69" value="descripcion" style="text;html=1;strokeColor=none;fillColor=none;align=center;verticalAlign=middle;whiteSpace=wrap;rounded=0;" parent="1" vertex="1">
          <mxGeometry x="218" y="605" width="30" as="geometry" />
        </mxCell>
        <mxCell id="Z6VxqrmD0JxdP03Q2yg--70" value="&lt;u&gt;id&lt;/u&gt;" style="text;html=1;strokeColor=none;fillColor=none;align=center;verticalAlign=middle;whiteSpace=wrap;rounded=0;" parent="1" vertex="1">
          <mxGeometry x="217" y="571.5" width="30" height="10" as="geometry" />
        </mxCell>
        <mxCell id="Z6VxqrmD0JxdP03Q2yg--151" value="" style="endArrow=none;html=1;rounded=0;entryX=0.5;entryY=1;entryDx=0;entryDy=0;exitX=1.002;exitY=0.212;exitDx=0;exitDy=0;exitPerimeter=0;" parent="1" source="Z6VxqrmD0JxdP03Q2yg--66" target="3QqV6nQteRf9r-d5pb0j-9" edge="1">
          <mxGeometry width="50" height="50" relative="1" as="geometry">
            <mxPoint x="360" y="522" as="sourcePoint" />
            <mxPoint x="456" y="523" as="targetPoint" />
          </mxGeometry>
        </mxCell>
        <mxCell id="IJCVIoUeo3aQp6AyCBGp-1" value="rol" style="rounded=0;whiteSpace=wrap;html=1;" parent="1" vertex="1">
          <mxGeometry x="161" y="110" width="120" height="60" as="geometry" />
        </mxCell>
        <mxCell id="IJCVIoUeo3aQp6AyCBGp-8" value="permiso" style="rhombus;whiteSpace=wrap;html=1;" parent="1" vertex="1">
          <mxGeometry x="365" y="100" width="80" height="80" as="geometry" />
        </mxCell>
        <mxCell id="IJCVIoUeo3aQp6AyCBGp-9" value="" style="endArrow=none;html=1;rounded=0;entryX=0;entryY=0.5;entryDx=0;entryDy=0;exitX=1;exitY=0.5;exitDx=0;exitDy=0;" parent="1" source="IJCVIoUeo3aQp6AyCBGp-1" target="IJCVIoUeo3aQp6AyCBGp-8" edge="1">
          <mxGeometry width="50" height="50" relative="1" as="geometry">
            <mxPoint x="481" y="10" as="sourcePoint" />
            <mxPoint x="531" y="-40" as="targetPoint" />
          </mxGeometry>
        </mxCell>
        <mxCell id="IJCVIoUeo3aQp6AyCBGp-10" value="" style="endArrow=none;html=1;rounded=0;exitX=1;exitY=0.5;exitDx=0;exitDy=0;entryX=0;entryY=0.5;entryDx=0;entryDy=0;" parent="1" source="IJCVIoUeo3aQp6AyCBGp-8" target="Z6VxqrmD0JxdP03Q2yg--1" edge="1">
          <mxGeometry width="50" height="50" relative="1" as="geometry">
            <mxPoint x="291" y="120" as="sourcePoint" />
            <mxPoint x="541" y="110" as="targetPoint" />
          </mxGeometry>
        </mxCell>
        <mxCell id="IJCVIoUeo3aQp6AyCBGp-35" value="N" style="text;html=1;strokeColor=none;fillColor=none;align=center;verticalAlign=middle;whiteSpace=wrap;rounded=0;" parent="1" vertex="1">
          <mxGeometry x="278" y="120" width="30" height="20" as="geometry" />
        </mxCell>
        <mxCell id="IJCVIoUeo3aQp6AyCBGp-36" value="N" style="text;html=1;strokeColor=none;fillColor=none;align=center;verticalAlign=middle;whiteSpace=wrap;rounded=0;" parent="1" vertex="1">
          <mxGeometry x="515" y="120" width="30" height="20" as="geometry" />
        </mxCell>
        <mxCell id="6iFIoIZRLq_LgVImzGVW-20" value="imagen" style="text;html=1;strokeColor=none;fillColor=none;align=center;verticalAlign=middle;whiteSpace=wrap;rounded=0;" parent="1" vertex="1">
          <mxGeometry x="217" y="613" width="30" height="10" as="geometry" />
        </mxCell>
        <mxCell id="3QqV6nQteRf9r-d5pb0j-2" value="" style="endArrow=none;html=1;rounded=0;exitX=0.951;exitY=-0.001;exitDx=0;exitDy=0;exitPerimeter=0;" parent="1" source="Z6VxqrmD0JxdP03Q2yg--66" edge="1">
          <mxGeometry width="50" height="50" relative="1" as="geometry">
            <mxPoint x="326" y="508.3800000000001" as="sourcePoint" />
            <mxPoint x="326" y="442" as="targetPoint" />
          </mxGeometry>
        </mxCell>
        <mxCell id="3QqV6nQteRf9r-d5pb0j-6" value="" style="endArrow=none;html=1;rounded=0;entryX=0.5;entryY=0;entryDx=0;entryDy=0;" parent="1" target="3QqV6nQteRf9r-d5pb0j-9" edge="1">
          <mxGeometry width="50" height="50" relative="1" as="geometry">
            <mxPoint x="326" y="442" as="sourcePoint" />
            <mxPoint x="496" y="442" as="targetPoint" />
          </mxGeometry>
        </mxCell>
        <mxCell id="3QqV6nQteRf9r-d5pb0j-9" value="Promociones" style="rhombus;whiteSpace=wrap;html=1;" parent="1" vertex="1">
          <mxGeometry x="366" y="442" width="80" height="80" as="geometry" />
        </mxCell>
        <mxCell id="t-AmKVCSMW4pwi2c8t3q-1" value="&lt;u style=&quot;&quot;&gt;fechaInicio&lt;/u&gt;" style="text;html=1;strokeColor=none;fillColor=none;align=center;verticalAlign=middle;whiteSpace=wrap;rounded=0;" parent="1" vertex="1">
          <mxGeometry x="468.5" y="468" width="30" height="10" as="geometry" />
        </mxCell>
        <mxCell id="t-AmKVCSMW4pwi2c8t3q-2" value="fechaFin" style="text;html=1;strokeColor=none;fillColor=none;align=center;verticalAlign=middle;whiteSpace=wrap;rounded=0;" parent="1" vertex="1">
          <mxGeometry x="468.5" y="486" width="30" as="geometry" />
        </mxCell>
        <mxCell id="t-AmKVCSMW4pwi2c8t3q-3" value="&lt;u&gt;id_producto&lt;/u&gt;" style="text;html=1;strokeColor=none;fillColor=none;align=center;verticalAlign=middle;whiteSpace=wrap;rounded=0;" parent="1" vertex="1">
          <mxGeometry x="468.5" y="453" width="30" height="10" as="geometry" />
        </mxCell>
        <mxCell id="t-AmKVCSMW4pwi2c8t3q-12" value="precioPromo" style="text;html=1;strokeColor=none;fillColor=none;align=center;verticalAlign=middle;whiteSpace=wrap;rounded=0;" parent="1" vertex="1">
          <mxGeometry x="469.5" y="498" width="26.5" as="geometry" />
        </mxCell>
        <mxCell id="t-AmKVCSMW4pwi2c8t3q-14" value="Producto(&amp;nbsp;&lt;u&gt;id&lt;/u&gt;, nombre, descripciÃ³n,&amp;nbsp;imagen )&lt;br&gt;&lt;br&gt;Promocion(&amp;nbsp;&lt;u&gt;id_prod&lt;/u&gt;,&amp;nbsp;precioPromo,&amp;nbsp;&lt;u&gt;fechaInicio&lt;/u&gt;, fechaFin )&lt;br&gt;&lt;br&gt;Ventas(&amp;nbsp;&lt;u&gt;id&lt;/u&gt;, id_prod, cantidad, totalMonetario, fechaVenta, precioProducto )&lt;br&gt;&lt;br&gt;prod_tiene_lista( id_listaPrecio,&amp;nbsp;&lt;u&gt;id_producto&lt;/u&gt;&lt;u&gt;,&lt;/u&gt;&amp;nbsp;precio, nuevoPrecio )&lt;br&gt;&lt;br&gt;ListaDePrecios( id, nombre, vigencia )" style="text;html=1;strokeColor=none;fillColor=none;align=center;verticalAlign=middle;whiteSpace=wrap;rounded=0;" parent="1" vertex="1">
          <mxGeometry x="550" y="675" width="680" height="170" as="geometry" />
        </mxCell>
        <mxCell id="t-AmKVCSMW4pwi2c8t3q-18" value="Ventas" style="rhombus;whiteSpace=wrap;html=1;" parent="1" vertex="1">
          <mxGeometry x="60" y="461" width="80" height="80" as="geometry" />
        </mxCell>
        <mxCell id="t-AmKVCSMW4pwi2c8t3q-22" value="cantidad" style="text;html=1;strokeColor=none;fillColor=none;align=center;verticalAlign=middle;whiteSpace=wrap;rounded=0;" parent="1" vertex="1">
          <mxGeometry x="1" y="496" width="30" height="10" as="geometry" />
        </mxCell>
        <mxCell id="t-AmKVCSMW4pwi2c8t3q-23" value="totalMonetario" style="text;html=1;strokeColor=none;fillColor=none;align=center;verticalAlign=middle;whiteSpace=wrap;rounded=0;" parent="1" vertex="1">
          <mxGeometry x="1" y="514" width="30" as="geometry" />
        </mxCell>
        <mxCell id="t-AmKVCSMW4pwi2c8t3q-24" value="&lt;u&gt;id_producto&lt;/u&gt;" style="text;html=1;strokeColor=none;fillColor=none;align=center;verticalAlign=middle;whiteSpace=wrap;rounded=0;" parent="1" vertex="1">
          <mxGeometry x="1" y="481" width="30" height="10" as="geometry" />
        </mxCell>
        <mxCell id="t-AmKVCSMW4pwi2c8t3q-26" value="&lt;u&gt;id&lt;/u&gt;" style="text;html=1;strokeColor=none;fillColor=none;align=center;verticalAlign=middle;whiteSpace=wrap;rounded=0;" parent="1" vertex="1">
          <mxGeometry y="466" width="30" height="10" as="geometry" />
        </mxCell>
        <mxCell id="t-AmKVCSMW4pwi2c8t3q-38" value="&lt;u&gt;nombreRol&lt;/u&gt;" style="text;html=1;strokeColor=none;fillColor=none;align=center;verticalAlign=middle;whiteSpace=wrap;rounded=0;" parent="1" vertex="1">
          <mxGeometry x="205" y="180" width="30" height="10" as="geometry" />
        </mxCell>
        <mxCell id="t-AmKVCSMW4pwi2c8t3q-43" value="ruta" style="text;html=1;strokeColor=none;fillColor=none;align=center;verticalAlign=middle;whiteSpace=wrap;rounded=0;" parent="1" vertex="1">
          <mxGeometry x="205" y="200" width="30" height="10" as="geometry" />
        </mxCell>
        <mxCell id="6If1bNclowg0XeCQonEO-1" value="fechaVenta" style="text;html=1;strokeColor=none;fillColor=none;align=center;verticalAlign=middle;whiteSpace=wrap;rounded=0;" parent="1" vertex="1">
          <mxGeometry x="1" y="526.5" width="30" as="geometry" />
        </mxCell>
        <mxCell id="6If1bNclowg0XeCQonEO-5" value="1" style="text;html=1;strokeColor=none;fillColor=none;align=center;verticalAlign=middle;whiteSpace=wrap;rounded=0;" parent="1" vertex="1">
          <mxGeometry x="326" y="496" width="14" height="10" as="geometry" />
        </mxCell>
        <mxCell id="6If1bNclowg0XeCQonEO-6" value="1" style="text;html=1;strokeColor=none;fillColor=none;align=center;verticalAlign=middle;whiteSpace=wrap;rounded=0;" parent="1" vertex="1">
          <mxGeometry x="332" y="524" width="14" height="10" as="geometry" />
        </mxCell>
        <mxCell id="6If1bNclowg0XeCQonEO-9" value="N" style="text;html=1;strokeColor=none;fillColor=none;align=center;verticalAlign=middle;whiteSpace=wrap;rounded=0;" parent="1" vertex="1">
          <mxGeometry x="110" y="450" width="14" height="10" as="geometry" />
        </mxCell>
        <mxCell id="6If1bNclowg0XeCQonEO-10" value="N" style="text;html=1;strokeColor=none;fillColor=none;align=center;verticalAlign=middle;whiteSpace=wrap;rounded=0;" parent="1" vertex="1">
          <mxGeometry x="108" y="541.26" width="14" height="8.74" as="geometry" />
        </mxCell>
        <mxCell id="0SlODfqwKaxbPGW9Lzxd-5" value="Lista de precios" style="rounded=0;whiteSpace=wrap;html=1;" parent="1" vertex="1">
          <mxGeometry x="250" y="810" width="120" height="60" as="geometry" />
        </mxCell>
        <mxCell id="0SlODfqwKaxbPGW9Lzxd-6" value="id&lt;br&gt;nombre&lt;br&gt;vigencia" style="text;html=1;strokeColor=none;fillColor=none;align=center;verticalAlign=middle;whiteSpace=wrap;rounded=0;" parent="1" vertex="1">
          <mxGeometry x="370" y="805" width="62" height="70" as="geometry" />
        </mxCell>
        <mxCell id="0SlODfqwKaxbPGW9Lzxd-9" value="" style="rhombus;whiteSpace=wrap;html=1;" parent="1" vertex="1">
          <mxGeometry x="270" y="650" width="80" height="80" as="geometry" />
        </mxCell>
        <mxCell id="0SlODfqwKaxbPGW9Lzxd-11" value="prod_tiene&lt;br&gt;_lista" style="text;html=1;strokeColor=none;fillColor=none;align=center;verticalAlign=middle;whiteSpace=wrap;rounded=0;" parent="1" vertex="1">
          <mxGeometry x="280" y="675" width="60" height="30" as="geometry" />
        </mxCell>
        <mxCell id="0SlODfqwKaxbPGW9Lzxd-14" value="id_listaPrecio&lt;br&gt;id_producto&lt;br&gt;precio" style="text;html=1;strokeColor=none;fillColor=none;align=center;verticalAlign=middle;whiteSpace=wrap;rounded=0;" parent="1" vertex="1">
          <mxGeometry x="335" y="657.5" width="102" height="65" as="geometry" />
        </mxCell>
        <mxCell id="0SlODfqwKaxbPGW9Lzxd-15" value="" style="endArrow=none;html=1;rounded=0;exitX=0.817;exitY=0.993;exitDx=0;exitDy=0;exitPerimeter=0;" parent="1" source="Z6VxqrmD0JxdP03Q2yg--66" edge="1">
          <mxGeometry width="50" height="50" relative="1" as="geometry">
            <mxPoint x="310" y="570" as="sourcePoint" />
            <mxPoint x="310" y="650" as="targetPoint" />
          </mxGeometry>
        </mxCell>
        <mxCell id="0SlODfqwKaxbPGW9Lzxd-16" value="" style="endArrow=none;html=1;rounded=0;exitX=0.817;exitY=0.993;exitDx=0;exitDy=0;exitPerimeter=0;" parent="1" edge="1">
          <mxGeometry width="50" height="50" relative="1" as="geometry">
            <mxPoint x="309.74" y="730" as="sourcePoint" />
            <mxPoint x="310" y="810" as="targetPoint" />
          </mxGeometry>
        </mxCell>
        <mxCell id="0SlODfqwKaxbPGW9Lzxd-18" value="precioProducto" style="text;html=1;strokeColor=none;fillColor=none;align=center;verticalAlign=middle;whiteSpace=wrap;rounded=0;" parent="1" vertex="1">
          <mxGeometry y="535.26" width="30" height="10" as="geometry" />
        </mxCell>
        <mxCell id="0SlODfqwKaxbPGW9Lzxd-21" value="ModuloConfiguracion( logo, rubro, nombre, calle, numero, ciudad, telefono, instagram, whatsapp,email, pwd_email comentarios&amp;nbsp; )&amp;nbsp;" style="text;html=1;strokeColor=none;fillColor=none;align=center;verticalAlign=middle;whiteSpace=wrap;rounded=0;" parent="1" vertex="1">
          <mxGeometry x="610" y="519.26" width="720" height="30" as="geometry" />
        </mxCell>
        <mxCell id="0SlODfqwKaxbPGW9Lzxd-22" value="Usuario( nombre, apellido, &lt;u&gt;cedula&lt;/u&gt;,&amp;nbsp;email, password )&lt;br&gt;Rol( &lt;u&gt;nombreRol&lt;/u&gt;, ruta )&lt;br&gt;permisos( &lt;u&gt;email, nombreRol&lt;/u&gt; )" style="text;html=1;strokeColor=none;fillColor=none;align=center;verticalAlign=middle;whiteSpace=wrap;rounded=0;" parent="1" vertex="1">
          <mxGeometry x="266" y="230" width="296" height="50" as="geometry" />
        </mxCell>
        <mxCell id="uXiKo003nCShmTZhEfQM-2" value="N" style="text;html=1;strokeColor=none;fillColor=none;align=center;verticalAlign=middle;whiteSpace=wrap;rounded=0;" parent="1" vertex="1">
          <mxGeometry x="312" y="571.5" width="14" height="10" as="geometry" />
        </mxCell>
        <mxCell id="uXiKo003nCShmTZhEfQM-3" value="N" style="text;html=1;strokeColor=none;fillColor=none;align=center;verticalAlign=middle;whiteSpace=wrap;rounded=0;" parent="1" vertex="1">
          <mxGeometry x="312" y="795" width="14" height="10" as="geometry" />
        </mxCell>
        <mxCell id="Ek76J6MnaW7abjpeao-0-1" value="categorÃ­a" style="text;html=1;strokeColor=none;fillColor=none;align=center;verticalAlign=middle;whiteSpace=wrap;rounded=0;" parent="1" vertex="1">
          <mxGeometry x="217" y="624" width="30" height="10" as="geometry" />
        </mxCell>
        <mxCell id="2qO4oraolgaejqv9IZn5-1" value="&lt;span style=&quot;color: rgb(0, 0, 0); font-family: Helvetica; font-size: 12px; font-style: normal; font-variant-ligatures: normal; font-variant-caps: normal; font-weight: 400; letter-spacing: normal; orphans: 2; text-align: center; text-indent: 0px; text-transform: none; widows: 2; word-spacing: 0px; -webkit-text-stroke-width: 0px; background-color: rgb(251, 251, 251); text-decoration-thickness: initial; text-decoration-style: initial; text-decoration-color: initial; float: none; display: inline !important;&quot;&gt;nombre&lt;br&gt;apellido&lt;br&gt;&lt;u&gt;cedula&lt;/u&gt;&lt;br&gt;email&lt;br&gt;pasword&lt;br&gt;&lt;/span&gt;" style="text;whiteSpace=wrap;html=1;" parent="1" vertex="1">
          <mxGeometry x="585" y="170" width="80" height="80" as="geometry" />
        </mxCell>
        <mxCell id="2qO4oraolgaejqv9IZn5-4" value="&lt;span style=&quot;color: rgb(0, 0, 0); font-family: Helvetica; font-size: 12px; font-style: normal; font-variant-ligatures: normal; font-variant-caps: normal; font-weight: 400; letter-spacing: normal; orphans: 2; text-align: center; text-indent: 0px; text-transform: none; widows: 2; word-spacing: 0px; -webkit-text-stroke-width: 0px; background-color: rgb(251, 251, 251); text-decoration-thickness: initial; text-decoration-style: initial; text-decoration-color: initial; float: none; display: inline !important;&quot;&gt;email&lt;/span&gt;" style="text;whiteSpace=wrap;html=1;" parent="1" vertex="1">
          <mxGeometry x="867" y="468" width="80" height="40" as="geometry" />
        </mxCell>
        <mxCell id="2qO4oraolgaejqv9IZn5-5" value="" style="endArrow=none;html=1;rounded=0;" parent="1" edge="1">
          <mxGeometry width="50" height="50" relative="1" as="geometry">
            <mxPoint x="867" y="483" as="sourcePoint" />
            <mxPoint x="830" y="440" as="targetPoint" />
          </mxGeometry>
        </mxCell>
        <mxCell id="2qO4oraolgaejqv9IZn5-6" value="" style="endArrow=none;html=1;rounded=0;" parent="1" edge="1">
          <mxGeometry width="50" height="50" relative="1" as="geometry">
            <mxPoint x="860" y="490" as="sourcePoint" />
            <mxPoint x="830" y="440" as="targetPoint" />
          </mxGeometry>
        </mxCell>
        <mxCell id="2qO4oraolgaejqv9IZn5-7" value="&lt;span style=&quot;color: rgb(0, 0, 0); font-family: Helvetica; font-size: 12px; font-style: normal; font-variant-ligatures: normal; font-variant-caps: normal; font-weight: 400; letter-spacing: normal; orphans: 2; text-align: center; text-indent: 0px; text-transform: none; widows: 2; word-spacing: 0px; -webkit-text-stroke-width: 0px; background-color: rgb(251, 251, 251); text-decoration-thickness: initial; text-decoration-style: initial; text-decoration-color: initial; float: none; display: inline !important;&quot;&gt;pwd_email&lt;/span&gt;" style="text;whiteSpace=wrap;html=1;" parent="1" vertex="1">
          <mxGeometry x="860" y="481" width="80" height="40" as="geometry" />
        </mxCell>
      </root>
    </mxGraphModel>
  </diagram>
</mxfile>
